<svg version="1.2" baseProfile="tiny-ps" xmlns="http://www.w3.org/2000/svg" viewBox="0 0 62 62" width="62" height="62">
	<title>Home Scene</title>
	<defs>
		<clipPath clipPathUnits="userSpaceOnUse" id="cp1">
			<path d="M1040.05 140L-879.95 140L-879.95 -940L1040.05 -940L1040.05 140Z" />
		</clipPath>
	</defs>
	<style>
		tspan { white-space:pre }
		.shp0 { fill: #ffffff } 
		.shp1 { fill: #228be6 } 
	</style>
	<g id="Home Scene" clip-path="url(#cp1)">
		<g id="Main Buttons">
			<g id="Layer 68">
				<path id="Circle Cartoon" class="shp0" d="M0.9 31.67C0.9 15.3 12.86 0.82 29.44 0.82C46.01 0.82 61.51 16.57 61.61 34.03C61.73 53.55 46.35 61.54 29.78 61.54C13.2 61.54 0.9 48.04 0.9 31.67Z" />
				<path id="Circle Cartoon" class="shp1" d="M3.98 31.62C3.98 16.91 14.73 3.9 29.62 3.9C44.51 3.9 58.44 18.05 58.53 33.74C58.63 51.28 44.82 58.45 29.93 58.45C15.03 58.45 3.98 46.32 3.98 31.62Z" />
			</g>
		</g>
	</g>
</svg>