<svg version="1.2" baseProfile="tiny-ps" xmlns="http://www.w3.org/2000/svg" viewBox="0 0 137 144" width="137" height="144">
	<title>Home Scene</title>
	<defs>
		<clipPath clipPathUnits="userSpaceOnUse" id="cp1">
			<path d="M1331.05 263L-588.95 263L-588.95 -817L1331.05 -817L1331.05 263Z" />
		</clipPath>
		<linearGradient id="grd1" gradientUnits="userSpaceOnUse"  x1="101.849" y1="18.96" x2="38.6" y2="113.866">
			<stop offset="0" stop-color="#f783ac"  />
			<stop offset="1" stop-color="#e64980"  />
		</linearGradient>
		<linearGradient id="grd2" gradientUnits="userSpaceOnUse"  x1="98.517" y1="22.593" x2="40.324" y2="103.754">
			<stop offset="0" stop-color="#f06595"  />
			<stop offset="1" stop-color="#f783ac" stop-opacity="0.68" />
		</linearGradient>
	</defs>
	<style>
		tspan { white-space:pre }
		.shp0 { fill-opacity: 0.2;fill: #0a3a6a } 
		.shp1 { fill: #c1355f } 
		.shp2 { fill: url(#grd1) } 
		.shp3 { fill: url(#grd2) } 
		.shp4 { fill: #ffffff } 
	</style>
	<g id="Home Scene" clip-path="url(#cp1)">
		<g id="Main Buttons">
			<g id="Pink">
				<path id="Ellipse" class="shp0" d="M0.69 79.43C0.69 44.38 26.3 13.39 61.8 13.39C97.29 13.39 130.47 47.1 130.69 84.49C130.94 126.28 98.02 143.39 62.53 143.39C27.03 143.39 0.69 114.48 0.69 79.43Z" />
				<path id="Ellipse" class="shp1" d="M6.86 66.73C6.86 31.68 32.47 0.68 67.96 0.68C103.46 0.68 136.64 34.4 136.86 71.79C137.1 113.58 104.19 130.68 68.7 130.68C33.2 130.68 6.86 101.78 6.86 66.73Z" />
				<path id="Ellipse" class="shp2" d="M11.04 65.76C11.04 33.28 35.06 4.56 68.36 4.56C101.65 4.56 132.78 35.8 132.98 70.45C133.21 109.18 102.34 125.03 69.04 125.03C35.75 125.03 11.04 98.24 11.04 65.76Z" />
				<path id="Ellipse" class="shp3" d="M14.09 63.67C14.09 36.32 35.1 12.42 67.71 12.14C98.86 11.87 127.97 38.45 128.16 67.62C128.38 100.23 102.29 116.26 68.35 113.58C37.3 111.12 14.09 91.02 14.09 63.67Z" />
				<g id="Layer 39">
					<path id="Layer 37" class="shp4" d="M103.11 19.64C109.31 24.23 115.61 31.07 114.32 32.8C113.04 34.53 104.66 30.5 98.46 25.91C92.26 21.31 90.56 17.88 91.84 16.15C93.13 14.42 96.9 15.04 103.11 19.64Z" />
					<path id="Layer 38" class="shp4" d="M41.27 102.78C42.78 103.62 43.57 105.1 43.03 106.08C42.48 107.06 40.81 107.17 39.29 106.33C37.78 105.48 36.99 104 37.54 103.02C38.09 102.04 39.76 101.93 41.27 102.78Z" />
				</g>
			</g>
		</g>
	</g>
</svg>