<svg xmlns="http://www.w3.org/2000/svg" width="62" height="62" baseProfile="tiny-ps" version="1.2" viewBox="0 0 62 62"><title>Home Scene</title><defs><clipPath id="cp1" clipPathUnits="userSpaceOnUse"><path d="M838.05 140L-1081.95 140L-1081.95 -940L838.05 -940L838.05 140Z"/></clipPath></defs><style>.shp0{fill:#fff}.shp1{fill:#845ef7}</style><g id="Home Scene" clip-path="url(#cp1)"><g id="Main Buttons"><g id="Layer 88"><path id="Circle Cartoon" d="M0.75 31.67C0.75 15.3 12.71 0.82 29.29 0.82C45.86 0.82 61.36 16.57 61.46 34.03C61.58 53.55 46.2 61.54 29.63 61.54C13.05 61.54 0.75 48.04 0.75 31.67Z" class="shp0"/><path id="Circle Cartoon" d="M3.83 31.62C3.83 16.91 14.58 3.9 29.47 3.9C44.36 3.9 58.29 18.05 58.38 33.74C58.48 51.28 44.67 58.45 29.78 58.45C14.88 58.45 3.83 46.32 3.83 31.62Z" class="shp1"/></g></g></g></svg>