<svg xmlns="http://www.w3.org/2000/svg" width="256" height="256" baseProfile="tiny-ps" version="1.2" viewBox="0 0 256 256"><title>Yellow</title><defs><linearGradient id="grd1" x1="183.774" x2="66.476" y1="32.154" y2="223.303" gradientUnits="userSpaceOnUse"><stop offset="0" stop-color="#ffe066"/><stop offset="1" stop-color="#e67700"/></linearGradient><linearGradient id="grd2" x1="179.083" x2="70.954" y1="43.266" y2="203.56" gradientUnits="userSpaceOnUse"><stop offset="0" stop-color="#fab005"/><stop offset="1" stop-color="#f59f00"/></linearGradient></defs><style>.shp0{fill:#a0611e}.shp1{fill:url(#grd1)}.shp2{fill:url(#grd2)}.shp3{fill:#fff}</style><g id="Yellow"><path id="Ellipse" d="M0 130.05C0 61.03 50.43 0 120.33 0C190.23 0 255.57 66.4 256 140.03C256.48 222.32 191.66 256 121.77 256C51.87 256 0 199.08 0 130.05Z" class="shp0"/><path id="Ellipse" d="M8.23 128.15C8.23 64.19 55.54 7.63 121.1 7.63C186.67 7.63 247.96 69.16 248.37 137.39C248.82 213.64 188.02 244.86 122.45 244.86C56.89 244.86 8.23 192.11 8.23 128.15Z" class="shp1"/><path id="Ellipse" d="M14.24 124.04C14.24 70.18 55.61 23.1 119.83 22.55C181.16 22.03 238.5 74.37 238.87 131.82C239.3 196.03 187.92 227.6 121.09 222.31C59.95 217.47 14.24 177.89 14.24 124.04Z" class="shp2"/><g id="Layer 8"><path id="Layer 6" d="M189.53 37.32C201.75 46.37 214.15 59.84 211.62 63.25C209.09 66.66 192.6 58.72 180.38 49.67C168.17 40.62 164.83 33.86 167.35 30.45C169.88 27.04 177.32 28.27 189.53 37.32Z" class="shp3"/><path id="Layer 7" d="M67.76 201.05C70.74 202.71 72.29 205.62 71.22 207.55C70.14 209.48 66.85 209.69 63.87 208.03C60.89 206.37 59.34 203.46 60.41 201.53C61.49 199.6 64.78 199.39 67.76 201.05Z" class="shp3"/></g></g></svg>