<svg version="1.2" baseProfile="tiny-ps" xmlns="http://www.w3.org/2000/svg" viewBox="0 0 256 256" width="256" height="256">
	<title>Neutral</title>
	<style>
		tspan { white-space:pre }
		.shp0 { fill: #74c0fc } 
		.shp1 { fill: #e7f5ff } 
		.shp2 { fill: #ffffff } 
	</style>
	<g id="Neutral">
		<path id="Layer 2" class="shp0" d="M128 256C23.32 256 0 210.23 0 128C0 45.77 37.35 0 128 0C218.65 0 256 47.57 256 128C256 208.43 232.68 256 128 256Z" />
		<path id="Layer 3" class="shp1" d="M128 247.25C61.87 250.02 8.25 227.44 8.09 130.5C7.91 20.8 65.86 7.84 128 7.84C194.18 7.84 252.02 28.53 247.91 130.5C244.06 225.83 210.77 243.77 128 247.25Z" />
		<path id="Layer 4" class="shp2" d="M126.97 228.32C47.32 228.32 21.54 189.19 21.54 130.75C21.54 50.99 59.93 24.76 128.05 24.76C210.68 24.76 231.86 64.11 231.86 130.65C231.86 189.09 211.94 228.32 126.97 228.32Z" />
	</g>
</svg>