<svg version="1.2" baseProfile="tiny-ps" xmlns="http://www.w3.org/2000/svg" viewBox="0 0 256 256" width="256" height="256">
	<title>Violet</title>
	<defs>
		<linearGradient id="grd1" gradientUnits="userSpaceOnUse"  x1="131.223" y1="7.616" x2="131.223" y2="247.498">
			<stop offset="0" stop-color="#b197fc"  />
			<stop offset="1" stop-color="#7950f2"  />
		</linearGradient>
		<linearGradient id="grd2" gradientUnits="userSpaceOnUse"  x1="127.617" y1="24.822" x2="127.617" y2="228.303">
			<stop offset="0" stop-color="#9775fa"  />
			<stop offset="1" stop-color="#9775fa"  />
		</linearGradient>
	</defs>
	<style>
		tspan { white-space:pre }
		.shp0 { fill: #5f3dc4 } 
		.shp1 { fill: url(#grd1) } 
		.shp2 { fill: url(#grd2) } 
		.shp3 { fill: #ffffff } 
		.shp4 { fill: #d0bfff } 
	</style>
	<g id="Violet">
		<path id="Layer 2" class="shp0" d="M128 256C23.32 256 0 210.23 0 128C0 45.77 37.35 0 128 0C218.65 0 256 47.57 256 128C256 208.43 232.68 256 128 256Z" />
		<path id="Layer 3" class="shp1" d="M128 247.25C61.87 250.02 8.25 227.44 8.09 130.5C7.91 20.8 65.86 7.84 128 7.84C194.18 7.84 252.02 28.53 247.91 130.5C244.06 225.83 210.77 243.77 128 247.25Z" />
		<path id="Layer 4" class="shp2" d="M126.97 228.32C47.32 228.32 21.54 189.19 21.54 130.75C21.54 50.99 59.93 24.76 128.05 24.76C210.68 24.76 231.86 64.11 231.86 130.65C231.86 189.09 211.94 228.32 126.97 228.32Z" />
		<g id="Layer 8">
			<path id="Layer 6" class="shp3" d="M172.44 27.23C176.87 21.59 193 25.84 207.75 37.56C222.51 49.29 230.34 64.08 225.91 69.73C221.48 75.37 210.22 64.93 195.46 53.2C180.71 41.48 168.01 32.88 172.44 27.23Z" />
			<path id="Layer 7" class="shp4" d="M55.94 200.53C60.4 204.71 62 210.27 59.52 212.94C57.03 215.6 51.39 214.37 46.93 210.19C42.48 206.01 40.87 200.45 43.36 197.79C45.85 195.12 51.49 196.35 55.94 200.53Z" />
		</g>
	</g>
</svg>