<svg xmlns="http://www.w3.org/2000/svg" width="204" height="242" baseProfile="tiny-ps" version="1.2" viewBox="0 0 204 242"><title>Alert</title><style>.shp0{fill:#fff}</style><g id="Alert"><path id="Ellipse" d="M83.16 19.37C83.16 9.06 91.51 0.7 101.8 0.7C112.09 0.7 120.43 9.06 120.43 19.37C120.43 29.68 112.09 38.03 101.8 38.03C91.51 38.03 83.16 29.68 83.16 19.37Z" class="shp0"/><path id="Composite Path" fill-rule="evenodd" d="M4.07 203.97C6.07 204.33 73.28 204.38 97.65 204.38L102 21.41C108.45 21.23 162.62 21.42 168.46 79.93C173.69 132.36 168.87 145.89 173.01 152.53C177.16 159.16 199.76 181.45 201.59 186.96C203.66 193.18 204.49 203.14 199.93 203.97C197.93 204.33 130.71 204.38 106.35 204.38L97.65 204.38L102 21.41C95.55 21.23 41.38 21.42 35.54 79.93C30.31 132.36 35.13 145.89 30.99 152.53C26.84 159.16 4.24 181.45 2.41 186.96C0.34 193.18 -0.49 203.14 4.07 203.97Z" class="shp0"/><path id="Path" d="M134.93 214.75C131.54 229.95 117.99 241.3 101.8 241.3C85.6 241.3 72.06 229.95 68.66 214.75L134.93 214.75Z" class="shp0"/></g></svg>