<svg version="1.2" baseProfile="tiny-ps" xmlns="http://www.w3.org/2000/svg" viewBox="0 0 92 250" width="92" height="250">
	<title>Alert</title>
	<style>
		tspan { white-space:pre }
		.shp0 { fill: #ffffff } 
	</style>
	<g id="Alert">
		<path id="Layer 2" class="shp0" d="M79.1 140.94C76.89 157.52 62.74 169.91 46.01 169.91C46 169.91 46 169.91 45.99 169.91C29.26 169.91 15.11 157.52 12.9 140.94C9.64 116.46 4.89 80.82 0.99 51.52C-0.74 38.54 3.21 25.45 11.84 15.61C20.46 5.76 32.91 0.11 46 0.11C46 0.11 46 0.11 46 0.11C59.09 0.11 71.54 5.76 80.16 15.61C88.79 25.45 92.74 38.54 91.01 51.52C87.11 80.82 82.36 116.46 79.1 140.94Z" />
		<path id="Layer 3" class="shp0" d="M43.94 191.64C60.07 191.64 73.16 204.69 73.16 220.76C73.16 236.84 60.07 249.89 43.94 249.89C27.82 249.89 14.72 236.84 14.72 220.76C14.72 204.69 27.82 191.64 43.94 191.64Z" />
	</g>
</svg>