<svg version="1.2" baseProfile="tiny-ps" xmlns="http://www.w3.org/2000/svg" viewBox="0 0 170 222" width="170" height="222">
	<title>Arrow Thin - Left</title>
	<style>
		tspan { white-space:pre }
		.shp0 { fill: #ffffff } 
	</style>
	<g id="Arrow Thin - Left">
		<path id="Path" class="shp0" d="M8.51 96.95L148.16 3.67C150.26 1.47 152.6 0.31 155.18 0.31C159.06 0.31 162.38 1.89 165.1 4.98C167.86 8.07 169.21 11.79 169.21 16.14C169.21 21.8 166.83 26.41 162.01 29.98L42.01 111L162.01 192.02C166.83 195.59 169.21 200.2 169.21 205.86C169.21 210.26 167.86 213.98 165.1 217.07C162.38 220.17 159.06 221.69 155.18 221.69C152.6 221.69 150.26 220.58 148.16 218.33L8.51 125.05C3.36 121.43 0.79 116.76 0.79 111C0.79 105.29 3.36 100.62 8.51 96.95L8.51 96.95Z" />
	</g>
</svg>