<svg version="1.2" baseProfile="tiny-ps" xmlns="http://www.w3.org/2000/svg" viewBox="0 0 170 222" width="170" height="222">
	<title>Arrow Thin - Right</title>
	<style>
		tspan { white-space:pre }
		.shp0 { fill: #ffffff } 
	</style>
	<g id="Arrow Thin - Right">
		<path id="Path" class="shp0" d="M161.49 96.95C166.64 100.62 169.21 105.29 169.21 111C169.21 116.76 166.64 121.43 161.49 125.05L21.84 218.33C19.74 220.58 17.4 221.69 14.82 221.69C10.94 221.69 7.62 220.17 4.9 217.07C2.14 213.98 0.79 210.26 0.79 205.86C0.79 200.2 3.17 195.59 7.99 192.02L127.99 111L7.99 29.98C3.17 26.41 0.79 21.8 0.79 16.14C0.79 11.79 2.14 8.07 4.9 4.98C7.62 1.89 10.94 0.31 14.82 0.31C17.4 0.31 19.74 1.47 21.84 3.67L161.49 96.95L161.49 96.95Z" />
	</g>
</svg>