<svg version="1.2" baseProfile="tiny-ps" xmlns="http://www.w3.org/2000/svg" viewBox="0 0 242 206" width="242" height="206">
	<title>Chat</title>
	<style>
		tspan { white-space:pre }
		.shp0 { fill: #ffffff } 
	</style>
	<g id="Chat">
		<path id="Composite Path" fill-rule="evenodd" class="shp0" d="M49.94 102.47C49.94 94.01 56.8 87.15 65.26 87.15C73.73 87.15 80.59 94.01 80.59 102.47C80.59 110.93 73.73 117.79 65.26 117.79C56.8 117.79 49.94 110.93 49.94 102.47ZM105.94 102.47C105.94 94.01 112.8 87.15 121.26 87.15C129.73 87.15 136.58 94.01 136.58 102.47C136.58 110.93 129.73 117.79 121.26 117.79C112.8 117.79 105.94 110.93 105.94 102.47ZM161.94 102.47C161.94 94.01 168.8 87.15 177.26 87.15C185.73 87.15 192.58 94.01 192.58 102.47C192.58 110.93 185.73 117.79 177.26 117.79C168.8 117.79 161.94 110.93 161.94 102.47ZM0.28 99.34C0.28 153.92 54.33 198.17 121 198.17C187.67 198.17 241.72 153.92 241.72 99.34C241.72 44.76 187.67 0.51 121 0.51C54.33 0.51 0.28 44.76 0.28 99.34Z" />
		<path id="Path" class="shp0" d="M112.12 185.62L6.55 205.49L35.82 155.29L112.12 185.62Z" />
	</g>
</svg>