<svg xmlns="http://www.w3.org/2000/svg" width="250" height="204" baseProfile="tiny-ps" version="1.2" viewBox="0 0 250 204"><title>Checkmark</title><style>.shp0{fill:#fff}</style><g id="Checkmark"><path id="Path" d="M98.2 203.16C90.95 203.16 84.15 200.25 79.05 194.96L8.44 121.65C-2.11 110.69 -2.11 92.86 8.44 81.9L24.99 64.72C30.09 59.42 36.89 56.51 44.14 56.51C51.38 56.51 58.18 59.42 63.28 64.72L98.24 101.01L186.72 9.05C191.82 3.75 198.62 0.84 205.86 0.84C213.11 0.84 219.91 3.75 225.01 9.05L241.55 26.22C252.11 37.18 252.11 55.02 241.56 65.98L117.34 194.96C112.24 200.25 105.44 203.16 98.2 203.16L98.2 203.16Z" class="shp0"/></g></svg>