<svg xmlns="http://www.w3.org/2000/svg" width="249" height="204" baseProfile="tiny-ps" version="1.2" viewBox="0 0 249 204"><title>Layer 1</title><style>.shp0{fill:#fff}</style><path id="Layer 1" d="M98.12 106.78C117.88 69.18 143.83 38.52 172.28 12.19C182.91 2.38 197.54 -1.84 211.75 0.8C225.97 3.44 238.11 12.63 244.51 25.6C244.51 25.6 244.51 25.6 244.5 25.61C253.73 44.33 248.23 66.97 231.43 79.37C191.92 108.55 152.27 151.79 112.52 194.77C107.15 200.55 99.5 203.65 91.62 203.23C83.75 202.82 76.46 198.93 71.74 192.61C50.93 164.87 30.17 138.8 9.04 113.9C-3.57 99.12 -2.66 77.11 11.14 63.43C11.14 63.43 11.14 63.43 11.14 63.43C19.81 54.83 31.87 50.58 44.01 51.84C56.15 53.1 67.09 59.73 73.81 69.92C86.2 88.71 98.12 106.78 98.12 106.78Z" class="shp0"/></svg>