<svg version="1.2" baseProfile="tiny-ps" xmlns="http://www.w3.org/2000/svg" viewBox="0 0 252 228" width="252" height="228">
	<title>Crown</title>
	<style>
		tspan { white-space:pre }
		.shp0 { fill: #ffffff } 
	</style>
	<g id="Crown">
		<path id="Layer 2" class="shp0" d="M126 0C140.86 0 152.93 12.06 152.93 26.93C152.93 41.79 140.86 53.85 126 53.85C111.14 53.85 99.07 41.79 99.07 26.93C99.07 12.06 111.14 0 126 0Z" />
		<path id="Layer 3" class="shp0" d="M126.07 195.67C183.16 195.67 229.51 194.77 229.51 206.59C229.51 218.41 183.16 228 126.07 228C68.98 228 22.64 218.41 22.64 206.59C22.64 194.77 68.98 195.67 126.07 195.67Z" />
		<path id="Layer 4" fill-rule="evenodd" class="shp0" d="M22.64 153.5L22.64 63.84L79.59 104.08L126 26.93L172.41 104.08L229.36 63.84L229.36 206.59L22.64 206.59L22.64 171.26C22.64 183.08 68.95 192.67 126 192.67C183.05 192.67 229.36 183.08 229.36 171.26L229.36 171.26L229.36 171.26L229.36 153.5L183.75 153.5C167.26 151.2 147.38 149.85 126 149.85C104.62 149.85 84.74 151.2 68.25 153.5L22.64 153.5ZM22.64 171.26L22.64 171.26L22.64 171.26Z" />
		<path id="Layer 5" class="shp0" d="M126 132.09C183.05 132.09 229.36 141.69 229.36 153.5C229.36 165.32 183.05 174.91 126 174.91C68.95 174.91 22.64 165.32 22.64 153.5C22.64 141.69 68.95 132.09 126 132.09Z" />
		<path id="Layer 6" class="shp0" d="M22.64 41.61C34.68 41.61 44.46 51.39 44.46 63.43C44.46 75.48 34.68 85.26 22.64 85.26C10.59 85.26 0.81 75.48 0.81 63.43C0.81 51.39 10.59 41.61 22.64 41.61Z" />
		<path id="Layer 7" class="shp0" d="M229.36 41.61C241.41 41.61 251.19 51.39 251.19 63.43C251.19 75.48 241.41 85.26 229.36 85.26C217.32 85.26 207.54 75.48 207.54 63.43C207.54 51.39 217.32 41.61 229.36 41.61Z" />
	</g>
</svg>