<svg version="1.2" baseProfile="tiny-ps" xmlns="http://www.w3.org/2000/svg" viewBox="0 0 256 242" width="256" height="242">
	<title>Cup</title>
	<style>
		tspan { white-space:pre }
		.shp0 { fill: #ffffff } 
	</style>
	<g id="Cup">
		<path id="Layer 2" class="shp0" d="M130.58 194.54L125.42 194.54C118.38 194.54 112.67 188.83 112.67 181.8C112.67 174.76 118.38 169.05 125.42 169.05L130.58 169.05C137.62 169.05 143.33 174.76 143.33 181.8C143.33 188.83 137.62 194.54 130.58 194.54Z" />
		<path id="Layer 3" class="shp0" d="M158.4 241.37L97.6 241.37C88.93 241.37 81.9 234.34 81.9 225.67C81.9 217 88.93 209.97 97.6 209.97L158.4 209.97C167.07 209.97 174.1 217 174.1 225.67C174.1 234.34 167.07 241.37 158.4 241.37Z" />
		<path id="Layer 4" class="shp0" d="M196.77 87.29C196.77 125.25 165.96 156.06 128 156.06C90.04 156.06 59.23 125.25 59.23 87.29L59.23 14.38C59.23 6.79 65.39 0.63 72.98 0.63L183.02 0.63C190.61 0.63 196.77 6.79 196.77 14.38L196.77 87.29Z" />
		<g id="Layer 8">
			<path id="Layer 6" fill-rule="evenodd" class="shp0" d="M49.09 18.39C76.18 18.39 98.18 40.39 98.18 67.48C98.18 94.57 76.18 116.57 49.09 116.57C22 116.57 0 94.57 0 67.48C0 40.39 22 18.39 49.09 18.39ZM17.47 67.48C17.47 84.93 31.64 99.1 49.09 99.1C66.54 99.1 80.71 84.93 80.71 67.48C80.71 50.03 66.54 35.86 49.09 35.86C31.64 35.86 17.47 50.03 17.47 67.48Z" />
			<path id="Layer 7" fill-rule="evenodd" class="shp0" d="M206.91 18.39C234 18.39 256 40.39 256 67.48C256 94.57 234 116.57 206.91 116.57C179.82 116.57 157.82 94.57 157.82 67.48C157.82 40.39 179.82 18.39 206.91 18.39ZM175.29 67.48C175.29 84.93 189.46 99.1 206.91 99.1C224.36 99.1 238.53 84.93 238.53 67.48C238.53 50.03 224.36 35.86 206.91 35.86C189.46 35.86 175.29 50.03 175.29 67.48Z" />
		</g>
		<path id="Rectangle" class="shp0" d="M118.44 124.27L137.56 124.27L137.56 220.93L118.44 220.93L118.44 124.27Z" />
	</g>
</svg>