<svg xmlns="http://www.w3.org/2000/svg" width="216" height="248" baseProfile="tiny-ps" version="1.2" viewBox="0 0 216 248"><title>Discord</title><style>.shp0{fill:#fff}</style><g id="Discord"><g id="Layer 6"><g id="Discord"><path id="Layer 4" fill-rule="evenodd" d="M215.82 26.16L215.82 247.22L189.33 223.81L174.42 210.01L158.64 195.35L165.17 218.14L25.44 218.14C11.52 218.14 0.18 206.8 0.18 192.76L0.18 26.16C0.18 12.12 11.52 0.78 25.44 0.78L190.56 0.78C204.48 0.78 215.82 12.12 215.82 26.16ZM180.7 142.98C180.7 103.3 162.96 71.14 162.96 71.14C145.21 57.83 128.33 58.2 128.33 58.2L126.61 60.17C147.55 66.58 157.29 75.82 157.29 75.82C144.47 68.8 131.9 65.35 120.2 63.99C111.33 63.01 102.82 63.25 95.31 64.24C94.57 64.24 93.95 64.36 93.21 64.48C88.9 64.85 78.43 66.46 65.24 72.25C60.68 74.34 57.97 75.82 57.97 75.82C57.97 75.82 68.2 66.09 90.38 59.68L89.15 58.2C89.15 58.2 72.27 57.83 54.52 71.14C54.52 71.14 36.78 103.3 36.78 142.98C36.78 142.98 47.13 160.84 74.36 161.71C74.36 161.71 78.92 156.16 82.62 151.48C66.97 146.8 61.05 136.94 61.05 136.94C61.05 136.94 62.28 137.8 64.5 139.03C64.63 139.16 64.75 139.28 65 139.4C65.37 139.65 65.74 139.77 66.1 140.02C69.19 141.74 72.27 143.1 75.1 144.21C80.15 146.18 86.19 148.15 93.21 149.51C102.45 151.23 113.3 151.85 125.13 149.63C130.92 148.64 136.83 146.92 142.99 144.33C147.31 142.73 152.11 140.39 157.17 137.06C157.17 137.06 151 147.17 134.86 151.72C138.56 156.41 142.99 161.71 142.99 161.71C170.23 160.84 180.7 142.98 180.7 142.98ZM85.7 104.16C92.72 104.16 98.39 110.32 98.27 117.84C98.27 125.36 92.72 131.52 85.7 131.52C78.8 131.52 73.13 125.36 73.13 117.84C73.13 110.32 78.67 104.16 85.7 104.16ZM130.67 104.16C137.7 104.16 143.24 110.32 143.24 117.84C143.24 125.36 137.7 131.52 130.67 131.52C123.77 131.52 118.1 125.36 118.1 117.84C118.1 110.32 123.65 104.16 130.67 104.16Z" class="shp0"/></g></g></g></svg>