<svg version="1.2" baseProfile="tiny-ps" xmlns="http://www.w3.org/2000/svg" viewBox="0 0 244 206" width="244" height="206">
	<title>Egual</title>
	<style>
		tspan { white-space:pre }
		.shp0 { fill: #ffffff } 
	</style>
	<g id="Egual">
		<path id="Path" class="shp0" d="M37.83 0.51L206.17 0.51C226.72 0.51 243.39 17.17 243.39 37.73L243.39 37.73C243.39 58.28 226.72 74.94 206.17 74.94L37.83 74.94C17.28 74.94 0.61 58.28 0.61 37.73L0.61 37.73C0.61 17.17 17.28 0.51 37.83 0.51Z" />
		<path id="Path" class="shp0" d="M37.83 131.06L206.17 131.06C226.72 131.06 243.39 147.72 243.39 168.27L243.39 168.27C243.39 188.83 226.72 205.49 206.17 205.49L37.83 205.49C17.28 205.49 0.61 188.83 0.61 168.27L0.61 168.27C0.61 147.72 17.28 131.06 37.83 131.06Z" />
	</g>
</svg>