<svg version="1.2" baseProfile="tiny-ps" xmlns="http://www.w3.org/2000/svg" viewBox="0 0 146 242" width="146" height="242">
	<title>Facebook</title>
	<style>
		tspan { white-space:pre }
		.shp0 { fill: #ffffff } 
	</style>
	<g id="Facebook">
		<g id="Icon">
			<path id="Path" class="shp0" d="M45.47 231.99C45.83 218.49 45.38 127.42 45.38 127.42C45.38 127.42 20.75 128.06 10.39 127.42C-3.44 126.57 -3.44 85.51 10.39 85.85C19.93 86.07 45.38 85.85 45.38 85.85L45.38 55.18C45.38 19.6 69.04 0.23 101.35 0.23C116.82 0.23 127.42 0.38 132.37 0.58C148.48 1.21 151.84 37.24 134 39.05C126.46 39.81 111.59 39.06 111.59 39.06C94.02 39.06 90.62 47.26 90.62 59.3L90.62 85.85C90.62 85.85 122.79 85.43 132.52 85.85C150.72 86.62 143.43 128.24 127.07 127.42C118.47 126.99 90.62 127.42 90.62 127.42C90.62 127.42 91.3 215.9 90.62 234.1C90.26 243.87 45.11 245.49 45.47 231.99Z" />
		</g>
	</g>
</svg>