<svg version="1.2" baseProfile="tiny-ps" xmlns="http://www.w3.org/2000/svg" viewBox="0 0 214 250" width="214" height="250">
	<title>Gift</title>
	<style>
		tspan { white-space:pre }
		.shp0 { fill: #ffffff } 
	</style>
	<g id="Gift">
		<g id="Gift">
			<g id="Layer 6">
				<path id="Layer 4" class="shp0" d="M19.98 125.75C14.87 125.75 9.98 123.72 6.37 120.11C2.76 116.5 0.73 111.61 0.73 106.5C0.73 106.5 0.73 106.5 0.73 106.5C0.73 95.88 9.36 87.26 19.98 87.26L86.8 87.26L86.8 125.75C86.8 125.75 45.35 125.75 19.98 125.75Z" />
				<path id="Layer 5" class="shp0" d="M127.2 125.75L127.2 87.26L194.02 87.26C204.64 87.26 213.27 95.88 213.27 106.5C213.27 106.5 213.27 106.5 213.27 106.5C213.27 111.61 211.24 116.5 207.63 120.11C204.02 123.72 199.13 125.75 194.02 125.75C168.65 125.75 127.2 125.75 127.2 125.75Z" />
			</g>
			<path id="Layer 7" fill-rule="evenodd" class="shp0" d="M40.05 74.84C28.05 62.84 21.51 48.28 20.66 35.94C19.93 25.31 23.16 16.01 29.76 9.41C36.36 2.81 45.66 -0.42 56.28 0.32C68.63 1.17 83.19 7.7 95.19 19.7C100.02 24.53 103.96 29.77 107 35.11C110.04 29.77 113.98 24.53 118.81 19.7C130.81 7.7 145.37 1.17 157.71 0.32C168.34 -0.42 177.64 2.81 184.24 9.41L184.24 9.41C190.84 16.01 194.07 25.31 193.34 35.94C192.49 48.28 185.95 62.84 173.95 74.84C171.67 77.12 169.3 79.2 166.87 81.08L47.13 81.08C44.7 79.2 42.33 77.12 40.05 74.84ZM156.51 27.2C150.18 28.59 143.43 32.56 137.54 38.44C131.66 44.32 127.7 51.08 126.3 57.4C125.53 60.93 125.16 64.31 127.25 66.4C129.35 68.5 132.72 68.13 136.25 67.35C142.57 65.96 149.33 61.99 155.21 56.11C161.09 50.23 165.06 43.47 166.45 37.15C167.23 33.62 167.6 30.24 165.5 28.15C163.41 26.05 160.03 26.42 156.51 27.2ZM47.55 37.15C48.94 43.47 52.91 50.23 58.79 56.11C64.67 61.99 71.43 65.96 77.75 67.35C81.28 68.13 84.65 68.5 86.75 66.4C88.84 64.31 88.47 60.93 87.7 57.4C86.3 51.08 82.34 44.32 76.46 38.44C70.57 32.56 63.82 28.59 57.49 27.2C53.97 26.42 50.59 26.05 48.5 28.15C46.4 30.24 46.77 33.62 47.55 37.15Z" />
			<g id="Layer 11">
				<path id="Layer 9" class="shp0" d="M41.8 249.79C25.89 249.79 12.97 236.87 12.97 220.96L12.97 134.49L86.8 134.49L86.8 249.79L41.8 249.79Z" />
				<path id="Layer 10" class="shp0" d="M127.2 249.79L127.2 134.49L201.03 134.49L201.03 220.96C201.03 236.87 188.11 249.79 172.2 249.79L127.2 249.79Z" />
			</g>
		</g>
	</g>
</svg>