<svg xmlns="http://www.w3.org/2000/svg" width="174" height="242" baseProfile="tiny-ps" version="1.2" viewBox="0 0 174 242"><title>Glass</title><style>.shp0{fill:#fff}</style><g id="Glass"><path id="Layer 2" d="M125.45 241.76L48.55 241.76C37.27 241.76 28.12 232.6 28.12 221.33C28.12 210.05 37.27 200.9 48.55 200.9L125.45 200.9C136.73 200.9 145.88 210.05 145.88 221.33C145.88 232.6 136.73 241.76 125.45 241.76Z" class="shp0"/><path id="Layer 3" d="M104.52 218.37C104.52 228.05 96.67 235.9 87 235.9C77.33 235.9 69.48 228.05 69.48 218.37L69.48 139.89C69.48 130.22 77.33 122.37 87 122.37C96.67 122.37 104.52 130.22 104.52 139.89L104.52 218.37Z" class="shp0"/><path id="Layer 4" d="M173.81 72.29C173.81 120.21 134.91 159.11 87 159.11C39.09 159.11 0.19 120.21 0.19 72.29C0.19 72.29 0.19 34.62 0.19 13.76C0.19 10.18 1.61 6.74 4.15 4.2C6.68 1.67 10.12 0.24 13.7 0.24C46.1 0.24 127.9 0.24 160.3 0.24C163.88 0.24 167.32 1.67 169.85 4.2C172.39 6.74 173.81 10.18 173.81 13.76C173.81 34.62 173.81 72.29 173.81 72.29Z" class="shp0"/></g></svg>