<svg version="1.2" baseProfile="tiny-ps" xmlns="http://www.w3.org/2000/svg" viewBox="0 0 230 222" width="230" height="222">
	<title>Home</title>
	<style>
		tspan { white-space:pre }
		.shp0 { fill: #ffffff } 
	</style>
	<g id="Home">
		<path id="Composite Path" fill-rule="evenodd" class="shp0" d="M114.98 222.03C98.22 222.03 81.47 222.03 64.71 222.03C59.52 222.03 54.54 220.99 49.95 218.44C40.29 213.08 34.83 204.93 33.67 193.91C33.55 192.59 33.51 191.23 33.51 189.91C33.51 175.89 33.51 161.87 33.51 147.88C33.51 146.4 33.51 146.4 32.03 146.4C17.03 146.24 3.43 134.54 1.15 119.71C-0.56 108.61 2.43 98.98 10.41 90.95C37.42 63.86 64.47 36.81 91.48 9.73C97.03 4.18 103.57 0.86 111.35 0.14C121.84 -0.82 130.94 2.18 138.48 9.77C157.07 28.47 175.74 47.12 194.41 65.78C202.59 73.93 210.77 82.08 218.91 90.23C221.66 92.99 224.06 95.98 225.81 99.46C231.76 111.25 230.04 125.35 221.34 135.3C215.12 142.45 207.18 146.16 197.69 146.36C196.61 146.4 196.45 146.76 196.45 147.72C196.49 162.5 196.53 177.29 196.45 192.07C196.37 206.29 185.32 219.16 171.31 221.51C169.16 221.87 166.97 222.03 164.77 222.03C148.21 222.03 131.58 222.03 114.98 222.03ZM133.89 174.25C133.89 170.81 133.85 167.38 133.89 163.98C133.93 159.63 132.33 155.91 129.3 152.96C123.36 147.16 116.22 145.8 108.48 148.2C100.86 150.56 96.15 156.87 96.07 164.38C96.03 170.93 96.03 177.49 96.07 184.04C96.11 188.43 97.58 192.27 100.66 195.42C107.04 202.02 117.73 203.34 125.63 198.46C131.06 195.11 134.05 190.31 133.93 183.76C133.85 180.56 133.89 177.41 133.89 174.25Z" />
		<path id="Path" class="shp0" d="M173.65 10.43L185.74 10.43C193.52 10.43 199.84 16.79 199.84 24.64L199.84 76.92C199.84 84.77 193.52 91.13 185.74 91.13L173.65 91.13C165.86 91.13 159.54 84.77 159.54 76.92L159.54 24.64C159.54 16.79 165.86 10.43 173.65 10.43Z" />
	</g>
</svg>