<svg version="1.2" baseProfile="tiny-ps" xmlns="http://www.w3.org/2000/svg" viewBox="0 0 78 250" width="78" height="250">
	<title>Info</title>
	<style>
		tspan { white-space:pre }
		.shp0 { fill: #ffffff } 
	</style>
	<g id="Info">
		<path id="Layer 2" class="shp0" d="M77.06 198.48C77.06 211.54 75.18 224.55 67.89 234.39C60.6 244.24 50.07 249.89 39 249.89C39 249.89 39 249.89 39 249.89C27.93 249.89 17.4 244.24 10.11 234.39C2.82 224.55 0.94 211.54 0.94 198.48C0.94 166.28 2.64 133.54 5.9 109.06C8.11 92.48 22.26 80.09 38.99 80.09C39 80.09 39 80.09 39.01 80.09C55.74 80.09 69.89 92.48 72.1 109.06C75.36 133.54 77.06 170.08 77.06 198.48Z" />
		<path id="Layer 3" class="shp0" d="M7.72 29.24C7.72 13.16 20.82 0.11 36.94 0.11C53.07 0.11 66.16 13.16 66.16 29.24C66.16 45.31 53.07 58.36 36.94 58.36C20.82 58.36 7.72 45.31 7.72 29.24Z" />
	</g>
</svg>