<svg xmlns="http://www.w3.org/2000/svg" width="234" height="230" baseProfile="tiny-ps" version="1.2" viewBox="0 0 234 230"><title>Instagram</title><style>.shp0{fill:#fff}</style><path id="Instagram" fill-rule="evenodd" d="M196.88 229.81L37.12 229.81C17.07 229.81 0.81 213.74 0.81 193.93L0.81 36.07C0.81 16.26 17.07 0.19 37.12 0.19L196.88 0.19C216.93 0.19 233.19 16.26 233.19 36.07L233.19 193.93C233.19 213.74 216.93 229.81 196.88 229.81ZM117 76.73C95.61 76.73 78.27 93.86 78.27 115C78.27 136.14 95.61 153.27 117 153.27C138.39 153.27 155.73 136.14 155.73 115C155.73 93.86 138.39 76.73 117 76.73ZM204.14 43.24C204.14 35.3 197.64 28.89 189.62 28.89L179.94 28.89C171.92 28.89 165.41 35.3 165.41 43.24L165.41 52.81C165.41 60.75 171.92 67.16 179.94 67.16L189.62 67.16C197.64 67.16 204.14 60.75 204.14 52.81L204.14 43.24ZM204.14 95.86L181.63 95.86C183.48 101.99 184.78 108.3 184.78 115C184.78 152.03 154.43 181.97 117 181.97C79.57 181.97 49.22 152.03 49.22 115C49.22 108.3 50.52 101.99 52.37 95.86L29.86 95.86L29.86 186.76C29.86 194.7 36.36 201.11 44.38 201.11L189.62 201.11C197.64 201.11 204.14 194.7 204.14 186.76L204.14 95.86Z" class="shp0"/></svg>