<svg version="1.2" baseProfile="tiny-ps" xmlns="http://www.w3.org/2000/svg" viewBox="0 0 176 242" width="176" height="242">
	<title>Lens</title>
	<style>
		tspan { white-space:pre }
		.shp0 { fill: #ffffff } 
	</style>
	<g id="Lens">
		<path id="Layer 2" fill-rule="evenodd" class="shp0" d="M88 0.7C136.04 0.7 175.04 39.7 175.04 87.74C175.04 135.78 136.04 174.79 88 174.79C39.96 174.79 0.96 135.78 0.96 87.74C0.96 39.7 39.96 0.7 88 0.7ZM31.01 87.74C31.01 119.19 56.55 144.73 88 144.73C119.45 144.73 144.99 119.19 144.99 87.74C144.99 56.29 119.45 30.76 88 30.76C56.55 30.76 31.01 56.29 31.01 87.74Z" />
		<path id="Layer 3" class="shp0" d="M108.11 221.19C108.11 232.29 99.1 241.3 88 241.3C76.9 241.3 67.89 232.29 67.89 221.19L67.89 168.04C67.89 156.93 76.9 147.92 88 147.92C99.1 147.92 108.11 156.93 108.11 168.04L108.11 221.19Z" />
	</g>
</svg>