<svg version="1.2" baseProfile="tiny-ps" xmlns="http://www.w3.org/2000/svg" viewBox="0 0 250 222" width="250" height="222">
	<title>Level</title>
	<style>
		tspan { white-space:pre }
		.shp0 { fill: #ffffff } 
	</style>
	<g id="Level">
		<path id="Ellipse" class="shp0" d="M0.64 25.21C0.64 11.35 11.88 0.11 25.74 0.11C39.6 0.11 50.84 11.35 50.84 25.21C50.84 39.07 39.6 50.31 25.74 50.31C11.88 50.31 0.64 39.07 0.64 25.21Z" />
		<path id="Path" class="shp0" d="M109.99 0.33L224.35 0.33C238.16 0.33 249.36 11.69 249.36 25.71L249.36 25.71C249.36 39.74 238.16 51.1 224.35 51.1L109.99 51.1C96.17 51.1 84.98 39.74 84.98 25.71L84.98 25.71C84.98 11.69 96.17 0.33 109.99 0.33Z" />
		<path id="Ellipse" class="shp0" d="M0.64 196C0.64 182.14 11.88 170.9 25.74 170.9C39.6 170.9 50.84 182.14 50.84 196C50.84 209.86 39.6 221.1 25.74 221.1C11.88 221.1 0.64 209.86 0.64 196Z" />
		<path id="Path" class="shp0" d="M109.99 171.11L224.35 171.11C238.16 171.11 249.36 182.48 249.36 196.5L249.36 196.5C249.36 210.52 238.16 221.89 224.35 221.89L109.99 221.89C96.17 221.89 84.98 210.52 84.98 196.5L84.98 196.5C84.98 182.48 96.17 171.11 109.99 171.11Z" />
		<path id="Ellipse" class="shp0" d="M0.64 112.91C0.64 99.05 11.88 87.81 25.74 87.81C39.6 87.81 50.84 99.05 50.84 112.91C50.84 126.78 39.6 138.01 25.74 138.01C11.88 138.01 0.64 126.78 0.64 112.91Z" />
		<path id="Path" class="shp0" d="M109.99 88.02L224.35 88.02C238.16 88.02 249.36 99.39 249.36 113.41L249.36 113.41C249.36 127.43 238.16 138.8 224.35 138.8L109.99 138.8C96.17 138.8 84.98 127.43 84.98 113.41L84.98 113.41C84.98 99.39 96.17 88.02 109.99 88.02Z" />
	</g>
</svg>