<svg xmlns="http://www.w3.org/2000/svg" width="254" height="234" baseProfile="tiny-ps" version="1.2" viewBox="0 0 254 234"><title>List</title><style>.shp0{fill:#fff}</style><g id="List"><path id="Layer 2" d="M228.39 50.2L25.61 50.2C11.9 50.2 0.76 39.07 0.76 25.36C0.76 11.64 11.9 0.51 25.61 0.51L228.39 0.51C242.1 0.51 253.24 11.64 253.24 25.36C253.24 39.07 242.1 50.2 228.39 50.2Z" class="shp0"/><path id="Layer 3" d="M228.39 141.85L25.61 141.85C11.9 141.85 0.76 130.71 0.76 117C0.76 103.29 11.9 92.15 25.61 92.15L228.39 92.15C242.1 92.15 253.24 103.29 253.24 117C253.24 130.71 242.1 141.85 228.39 141.85Z" class="shp0"/><path id="Layer 4" d="M228.39 233.49L25.61 233.49C11.9 233.49 0.76 222.36 0.76 208.64C0.76 194.93 11.9 183.8 25.61 183.8L228.39 183.8C242.1 183.8 253.24 194.93 253.24 208.64C253.24 222.36 242.1 233.49 228.39 233.49Z" class="shp0"/></g></svg>