<svg xmlns="http://www.w3.org/2000/svg" width="190" height="238" baseProfile="tiny-ps" version="1.2" viewBox="0 0 190 238"><title>Lock</title><style>.shp0{fill:#fff}</style><g id="Lock"><path id="Layer 2" fill-rule="evenodd" d="M163.13 163.76C163.13 201.36 132.6 231.89 95 231.89C57.4 231.89 26.87 201.36 26.87 163.76L26.87 68.22C26.87 30.62 57.4 0.09 95 0.09C132.6 0.09 163.13 30.62 163.13 68.22L163.13 163.76ZM95 26.76C72.12 26.76 53.54 45.34 53.54 68.22L53.54 163.76C53.54 186.64 72.12 205.22 95 205.22C117.88 205.22 136.46 186.64 136.46 163.76L136.46 68.22C136.46 45.34 117.88 26.76 95 26.76Z" class="shp0"/><g id="Layer 5"><path id="Layer 4" fill-rule="evenodd" d="M189.4 201.08C189.4 221.41 172.9 237.91 152.57 237.91L37.43 237.91C17.1 237.91 0.6 221.41 0.6 201.08L0.6 127.43C0.6 107.1 17.1 90.6 37.43 90.6L152.57 90.6C172.9 90.6 189.4 107.1 189.4 127.43L189.4 201.08ZM104.52 173.63C112.32 170.03 117.73 162.13 117.73 152.98C117.73 140.43 107.55 130.25 95 130.25C82.45 130.25 72.27 140.43 72.27 152.98C72.27 162.13 77.68 170.03 85.48 173.63L85.48 188.75C85.48 194 89.75 198.26 95 198.26C100.25 198.26 104.52 194 104.52 188.75L104.52 173.63Z" class="shp0"/></g></g></svg>