<svg xmlns="http://www.w3.org/2000/svg" width="244" height="180" baseProfile="tiny-ps" version="1.2" viewBox="0 0 244 180"><title>Mail</title><style>.shp0{fill:#fff}</style><path id="Mail" fill-rule="evenodd" d="M7.51 21.61C8.85 23.28 10.29 24.9 11.85 26.45L80.57 95.18C103.44 118.04 140.56 118.04 163.43 95.18L232.15 26.45C233.71 24.9 235.15 23.28 236.49 21.61C240.68 28.43 243.09 36.46 243.09 45.04L243.09 134.96C243.09 159.77 222.95 179.91 198.13 179.91L45.87 179.91C21.05 179.91 0.91 159.77 0.91 134.96L0.91 45.04C0.91 36.46 3.32 28.43 7.51 21.61ZM21.66 7.16C28.65 2.69 36.96 0.09 45.87 0.09L198.13 0.09C207.04 0.09 215.35 2.69 222.34 7.16C221.07 8.97 219.63 10.7 218.01 12.31L149.29 81.03C134.23 96.1 109.77 96.1 94.71 81.03L25.99 12.31C24.37 10.7 22.93 8.97 21.66 7.16Z" class="shp0"/></svg>