<svg xmlns="http://www.w3.org/2000/svg" width="238" height="142" baseProfile="tiny-ps" version="1.2" viewBox="0 0 238 142"><title>Menu</title><style>.shp0{fill:#fff}</style><g id="Menu"><path id="Ellipse" d="M0.46 31.25C0.46 14.02 14.42 0.05 31.66 0.05C48.89 0.05 62.86 14.02 62.86 31.25C62.86 48.48 48.89 62.45 31.66 62.45C14.42 62.45 0.46 48.48 0.46 31.25Z" class="shp0"/><path id="Ellipse" d="M88.77 31.25C88.77 14.02 102.74 0.05 119.97 0.05C137.2 0.05 151.17 14.02 151.17 31.25C151.17 48.48 137.2 62.45 119.97 62.45C102.74 62.45 88.77 48.48 88.77 31.25Z" class="shp0"/><path id="Ellipse" d="M175.15 31.25C175.15 14.02 189.11 0.05 206.34 0.05C223.58 0.05 237.54 14.02 237.54 31.25C237.54 48.48 223.58 62.45 206.34 62.45C189.11 62.45 175.15 48.48 175.15 31.25Z" class="shp0"/><path id="Ellipse" d="M0.46 110.75C0.46 93.52 14.42 79.55 31.66 79.55C48.89 79.55 62.86 93.52 62.86 110.75C62.86 127.98 48.89 141.95 31.66 141.95C14.42 141.95 0.46 127.98 0.46 110.75Z" class="shp0"/><path id="Ellipse" d="M88.77 110.75C88.77 93.52 102.74 79.55 119.97 79.55C137.2 79.55 151.17 93.52 151.17 110.75C151.17 127.98 137.2 141.95 119.97 141.95C102.74 141.95 88.77 127.98 88.77 110.75Z" class="shp0"/><path id="Ellipse" d="M175.15 110.75C175.15 93.52 189.11 79.55 206.34 79.55C223.58 79.55 237.54 93.52 237.54 110.75C237.54 127.98 223.58 141.95 206.34 141.95C189.11 141.95 175.15 127.98 175.15 110.75Z" class="shp0"/></g></svg>