<svg version="1.2" baseProfile="tiny-ps" xmlns="http://www.w3.org/2000/svg" viewBox="0 0 142 200" width="142" height="200">
	<title>Music - Single</title>
	<style>
		tspan { white-space:pre }
		.shp0 { fill: #ffffff } 
	</style>
	<g id="Music - Single">
		<g id="Layer 6">
			<path id="Layer 3" class="shp0" d="M79.19 163.36L64.92 163.36L64.92 33.23L79.19 33.23L79.19 163.36Z" />
			<path id="Layer 4" class="shp0" d="M141.19 35.81C141.19 45.09 134.91 53.21 125.93 55.55C103.67 61.34 64.92 71.44 64.92 71.44C64.92 71.44 64.92 46.88 64.92 29.91C64.92 20.61 71.2 12.49 80.2 10.14C90.34 7.5 103.89 3.97 115.64 0.91C121.76 -0.68 128.26 0.65 133.26 4.51C138.26 8.38 141.19 14.34 141.19 20.65C141.19 25.83 141.19 31.11 141.19 35.81Z" />
			<path id="Layer 5" class="shp0" d="M39.68 129.98C61.12 129.98 78.54 145.61 78.54 164.86C78.54 184.11 61.12 199.74 39.68 199.74C18.23 199.74 0.81 184.11 0.81 164.86C0.81 145.61 18.23 129.98 39.68 129.98Z" />
		</g>
	</g>
</svg>