<svg xmlns="http://www.w3.org/2000/svg" width="192" height="218" baseProfile="tiny-ps" version="1.2" viewBox="0 0 192 218"><title>Music</title><style>.shp0{fill:#fff}</style><g id="Music"><g id="Layer 8"><path id="Layer 3" d="M77.85 177.89L57.85 177.89L57.85 53.4L77.85 53.4L77.85 177.89Z" class="shp0"/><path id="Layer 4" d="M191.88 150.61L171.88 150.61L171.88 24.03L191.88 24.03L191.88 150.61Z" class="shp0"/><path id="Layer 5" d="M191.88 51.94L57.85 86.85C57.85 86.85 57.85 62.29 57.85 45.33C57.85 36.03 64.12 27.9 73.12 25.56C95.83 19.64 138.75 8.46 166.3 1.29C172.42 -0.31 178.94 1.02 183.94 4.89C188.95 8.76 191.88 14.73 191.88 21.05C191.88 36.08 191.88 51.94 191.88 51.94Z" class="shp0"/><path id="Layer 6" d="M153.02 120.2C174.46 120.2 191.88 135.83 191.88 155.08C191.88 174.33 174.46 189.95 153.02 189.95C131.57 189.95 114.15 174.33 114.15 155.08C114.15 135.83 131.57 120.2 153.02 120.2Z" class="shp0"/><path id="Layer 7" d="M38.98 147.62C60.43 147.62 77.85 163.25 77.85 182.5C77.85 201.75 60.43 217.38 38.98 217.38C17.54 217.38 0.12 201.75 0.12 182.5C0.12 163.25 17.54 147.62 38.98 147.62Z" class="shp0"/></g></g></svg>