<svg xmlns="http://www.w3.org/2000/svg" width="224" height="242" baseProfile="tiny-ps" version="1.2" viewBox="0 0 224 242"><title>Pause</title><style>.shp0{fill:#fff}</style><g id="Pause"><path id="Path" d="M41.91 0.7L41.91 0.7C64.74 0.7 83.25 19.17 83.25 41.96L83.25 199.85C83.25 222.65 64.74 241.12 41.91 241.12L41.91 241.12C19.09 241.12 0.58 222.65 0.58 199.85L0.58 41.96C0.58 19.17 19.09 0.7 41.91 0.7Z" class="shp0"/><path id="Path" d="M182.09 0.88L182.09 0.88C204.91 0.88 223.42 19.35 223.42 42.15L223.42 200.04C223.42 222.83 204.91 241.3 182.09 241.3L182.09 241.3C159.26 241.3 140.75 222.83 140.75 200.04L140.75 42.15C140.75 19.35 159.26 0.88 182.09 0.88Z" class="shp0"/></g></svg>