<svg version="1.2" baseProfile="tiny-ps" xmlns="http://www.w3.org/2000/svg" viewBox="0 0 254 206" width="254" height="206">
	<title>Photo</title>
	<style>
		tspan { white-space:pre }
		.shp0 { fill: #ffffff } 
	</style>
	<g id="Photo">
		<path id="Composite Path" fill-rule="evenodd" class="shp0" d="M203.67 45.92C203.67 39.47 208.91 34.24 215.37 34.24C221.83 34.24 227.06 39.47 227.06 45.92C227.06 52.37 221.83 57.59 215.37 57.59C208.91 57.59 203.67 52.37 203.67 45.92ZM63.76 119C63.76 84.13 92.07 55.86 127 55.86C161.93 55.86 190.24 84.13 190.24 119C190.24 153.87 161.93 182.14 127 182.14C92.07 182.14 63.76 153.87 63.76 119ZM33.44 21.31C14.87 22.19 0.08 37.51 0.08 56.27L0.08 170.49C0.08 189.82 15.78 205.49 35.14 205.49L218.86 205.49C238.22 205.49 253.92 189.82 253.92 170.49L253.92 56.27C253.92 36.94 238.22 21.27 218.86 21.27L83.68 21.27L83.68 23.76C83.68 27.04 81.02 29.7 77.74 29.7L39.38 29.7C36.1 29.7 33.44 27.04 33.44 23.76L33.44 21.31Z" />
		<path id="Ellipse" class="shp0" d="M79.78 119.43C79.78 93.4 100.92 72.3 127 72.3C153.08 72.3 174.22 93.4 174.22 119.43C174.22 145.47 153.08 166.57 127 166.57C100.92 166.57 79.78 145.47 79.78 119.43Z" />
		<path id="Composite Path" fill-rule="evenodd" class="shp0" d="M39.38 9.59L77.74 9.59C81.02 9.59 83.68 12.24 83.68 15.52L83.68 23.76C83.68 27.04 81.02 29.7 77.74 29.7L39.38 29.7C36.1 29.7 33.44 27.04 33.44 23.76L33.44 15.52C33.44 12.24 36.1 9.59 39.38 9.59ZM36.82 0.51C28.49 0.51 21.74 7.25 21.74 15.56L21.74 36.49C21.74 44.8 28.49 51.54 36.82 51.54L80.3 51.54C88.63 51.54 95.38 44.8 95.38 36.49L95.38 15.56C95.38 7.25 88.63 0.51 80.3 0.51L36.82 0.51Z" />
	</g>
</svg>