<svg version="1.2" baseProfile="tiny-ps" xmlns="http://www.w3.org/2000/svg" viewBox="0 0 242 242" width="242" height="242">
	<title>Plus</title>
	<style>
		tspan { white-space:pre }
		.shp0 { fill: #ffffff } 
	</style>
	<g id="Plus">
		<path id="Path" class="shp0" d="M111.92 0.7L128.54 0.7C144.82 0.7 158.02 13.89 158.02 30.17L158.02 211.83C158.02 228.11 144.82 241.3 128.54 241.3L111.92 241.3C95.64 241.3 82.44 228.11 82.44 211.83L82.44 30.17C82.44 13.89 95.64 0.7 111.92 0.7Z" />
		<path id="Path" class="shp0" d="M241.3 111.92L241.3 128.54C241.3 144.82 228.11 158.02 211.83 158.02L30.17 158.02C13.89 158.02 0.7 144.82 0.7 128.54L0.7 111.92C0.7 95.64 13.89 82.44 30.17 82.44L211.83 82.44C228.11 82.44 241.3 95.64 241.3 111.92Z" />
	</g>
</svg>