<svg xmlns="http://www.w3.org/2000/svg" width="124" height="210" baseProfile="tiny-ps" version="1.2" viewBox="0 0 124 210"><title>Question Mark</title><style>.shp0{fill:#fff}</style><path id="Question Mark" fill-rule="evenodd" d="M45.22 149.08C30.74 149.08 23.5 147.25 23.5 143.59L23.5 132.6C23.5 123.93 30.37 112.85 44.12 99.36C49.26 94.35 53.98 88.67 58.29 82.31C62.6 75.95 64.75 70.17 64.75 64.97C64.75 55.33 59.48 50.52 48.94 50.52C38.39 50.52 27.8 54.18 17.17 61.5C10.2 54.18 5.34 45.89 2.59 36.64C1.49 33.56 0.94 30.81 0.94 28.4C0.94 26 1.4 23.73 2.32 21.61C3.79 16.6 10.62 11.88 22.81 7.45C35 3.02 47.88 0.8 61.45 0.8C81.99 0.8 97.39 5.43 107.65 14.67C117.92 23.92 123.06 36.55 123.06 52.54C123.06 59.86 121.36 67.04 117.97 74.07C114.58 81.11 110.45 87.27 105.59 92.57C100.73 97.87 95.92 102.83 91.15 107.46C79.6 119.02 73.83 127.79 73.83 133.76L73.83 142.43C73.83 144.74 70.43 146.43 63.65 147.49C56.87 148.55 50.72 149.08 45.22 149.08ZM72.18 207.46C72.18 208.62 64.61 209.2 49.49 209.2C34.36 209.2 26.8 208.72 26.8 207.75L26.8 162.37C26.8 160.83 34.36 160.06 49.49 160.06C64.61 160.06 72.18 160.54 72.18 161.51L72.18 207.46Z" class="shp0"/></svg>