<svg version="1.2" baseProfile="tiny-ps" xmlns="http://www.w3.org/2000/svg" viewBox="0 0 150 236" width="150" height="236">
	<title>Question Mark - Border</title>
	<style>
		tspan { white-space:pre }
		.shp0 { fill: #ffffff;stroke: #ffffff;stroke-linejoin:round;stroke-width: 27.472 } 
	</style>
	<path id="Question Mark - Border" fill-rule="evenodd" class="shp0" d="M58.22 162.08C43.74 162.08 36.5 160.25 36.5 156.59L36.5 145.6C36.5 136.93 43.37 125.85 57.12 112.36C62.26 107.35 66.98 101.67 71.29 95.31C75.6 88.95 77.75 83.17 77.75 77.97C77.75 68.33 72.48 63.52 61.94 63.52C51.39 63.52 40.8 67.18 30.17 74.5C23.2 67.18 18.34 58.89 15.59 49.64C14.49 46.56 13.94 43.81 13.94 41.4C13.94 39 14.4 36.73 15.32 34.61C16.79 29.6 23.62 24.88 35.81 20.45C48 16.02 60.88 13.8 74.45 13.8C94.99 13.8 110.39 18.43 120.65 27.67C130.92 36.92 136.06 49.55 136.06 65.54C136.06 72.86 134.36 80.04 130.97 87.07C127.58 94.11 123.45 100.27 118.59 105.57C113.73 110.87 108.92 115.83 104.15 120.46C92.6 132.02 86.83 140.79 86.83 146.76L86.83 155.43C86.83 157.74 83.43 159.43 76.65 160.49C69.87 161.55 63.72 162.08 58.22 162.08ZM85.18 220.46C85.18 221.62 77.61 222.2 62.49 222.2C47.36 222.2 39.8 221.72 39.8 220.75L39.8 175.37C39.8 173.83 47.36 173.06 62.49 173.06C77.61 173.06 85.18 173.54 85.18 174.51L85.18 220.46Z" />
</svg>