<svg version="1.2" baseProfile="tiny-ps" xmlns="http://www.w3.org/2000/svg" viewBox="0 0 240 122" width="240" height="122">
	<title>Ranking (Numbers)</title>
	<style>
		tspan { white-space:pre }
		.shp0 { fill: #ffffff } 
	</style>
	<g id="Ranking (Numbers)">
		<path id="Composite Path" fill-rule="evenodd" class="shp0" d="M49.59 58.05C50.31 59.75 50.73 61.55 50.73 63.46C50.73 64.86 50.42 66.16 50.01 67.37C49.49 68.57 48.87 69.77 48.05 70.77C47.23 71.78 46.3 72.78 45.27 73.68C44.24 74.58 43.11 75.38 42.08 76.08L50.21 76.08L49.59 86.51L25.51 85.71L25.51 76.59C26.34 76.29 27.37 75.88 28.39 75.48C29.42 75.08 30.35 74.68 31.38 74.08C32.3 73.48 33.23 72.88 34.06 72.18C34.88 71.58 35.7 70.77 36.32 69.97C36.94 69.17 37.55 68.27 37.97 67.27C38.38 66.36 38.58 65.36 38.58 64.16C38.58 63.56 38.38 63.06 38.17 62.56C37.97 62.06 37.66 61.65 37.24 61.35C36.83 61.05 36.32 60.85 35.8 60.65C35.19 60.45 34.67 60.35 34.06 60.35C33.54 60.35 33.03 60.45 32.51 60.55C31.89 60.65 31.38 60.75 30.86 60.95C30.35 61.15 29.83 61.45 29.42 61.75C29.01 62.06 28.6 62.36 28.29 62.66L26.03 52.84C26.64 52.23 27.37 51.73 28.19 51.33C29.01 50.93 29.83 50.63 30.76 50.33C31.58 50.13 32.51 49.93 33.54 49.73C34.47 49.63 35.39 49.53 36.32 49.53C38.38 49.53 40.23 49.93 41.98 50.63C43.73 51.43 45.27 52.44 46.51 53.64C47.74 54.84 48.77 56.34 49.59 58.05ZM24.23 37.06C14.95 37.06 7.43 44.38 7.43 53.41L0.85 104.08C0.85 113.11 8.37 120.43 17.64 120.43L54.1 120.43C63.38 120.43 70.9 113.11 70.9 104.08L73.3 53.41C73.3 44.38 65.78 37.06 56.5 37.06L24.23 37.06Z" />
		<path id="Composite Path" fill-rule="evenodd" class="shp0" d="M115.32 13.18L127.05 13.68L125.51 49.35L114.29 48.85L114.91 25.1L110.79 27.91L106.98 19.29L115.32 13.18ZM103.26 0.07C93.99 0.07 86.47 7.39 86.47 16.43L81.67 105.57C81.67 114.61 89.19 121.93 98.46 121.93L142.74 121.93C152.01 121.93 159.53 114.61 159.53 105.57L152.33 16.43C152.33 7.39 144.81 0.07 135.54 0.07L103.26 0.07Z" />
		<path id="Composite Path" fill-rule="evenodd" class="shp0" d="M215 89.88C215.1 90.59 215.21 91.29 215.21 91.99C215.21 94.19 214.8 96.2 214.07 97.8C213.25 99.4 212.22 100.81 210.99 101.81C209.65 102.91 208.11 103.71 206.36 104.21C204.51 104.72 202.55 105.02 200.39 105.02C199.36 105.02 198.43 104.92 197.4 104.72C196.38 104.51 195.35 104.32 194.32 104.01C193.29 103.71 192.26 103.31 191.33 102.91C190.41 102.51 189.58 102.01 188.76 101.41L189.69 91.39C190.3 91.79 191.02 92.19 191.85 92.59C192.67 92.99 193.49 93.39 194.32 93.69C195.14 93.99 196.07 94.19 196.99 94.39C197.82 94.59 198.74 94.69 199.57 94.69C199.98 94.69 200.49 94.69 201.01 94.59C201.52 94.59 202.04 94.39 202.45 94.19C202.86 93.99 203.17 93.79 203.48 93.39C203.68 92.99 203.89 92.49 203.89 91.89C203.89 91.49 203.68 91.19 203.37 90.89C202.96 90.59 202.55 90.29 202.14 90.08L200.59 89.48C200.08 89.38 199.67 89.28 199.36 89.28C199.05 89.28 198.74 89.38 198.43 89.38C198.02 89.38 197.71 89.48 197.4 89.48C196.99 89.58 196.68 89.68 196.38 89.68C196.07 89.78 195.86 89.88 195.76 89.98L195.86 82.87C196.07 82.87 196.38 82.97 196.68 82.97L197.51 82.97C198.13 82.97 198.74 82.97 199.46 82.87C200.08 82.77 200.8 82.57 201.42 82.27C202.04 81.97 202.55 81.57 202.96 81.07C203.37 80.66 203.58 79.96 203.58 79.16C203.58 78.66 203.37 78.26 203.07 77.86C202.76 77.56 202.34 77.26 201.93 77.06C201.42 76.86 200.9 76.76 200.39 76.66C199.87 76.66 199.46 76.56 199.05 76.56C197.61 76.56 196.17 76.86 194.83 77.26C193.49 77.76 192.36 78.46 191.33 79.36L189.17 70.24C190.72 69.04 192.46 68.04 194.52 67.34C196.58 66.74 198.64 66.33 200.7 66.33C202.55 66.33 204.3 66.64 206.05 67.14C207.7 67.74 209.24 68.54 210.58 69.54C211.81 70.54 212.84 71.85 213.66 73.35C214.39 74.85 214.8 76.56 214.8 78.46C214.8 79.06 214.69 79.66 214.49 80.26C214.28 80.87 214.07 81.37 213.87 81.97C213.56 82.57 213.25 83.07 212.84 83.47C212.43 83.97 212.02 84.37 211.6 84.67C212.22 85.07 212.84 85.47 213.36 85.98C213.77 86.58 214.18 87.18 214.49 87.78C214.69 88.48 214.9 89.18 215 89.88ZM183.5 56.3C174.22 56.3 166.7 63.62 166.7 72.65L170.3 104.08C170.3 113.11 177.82 120.43 187.1 120.43L222.36 120.43C231.63 120.43 239.15 113.11 239.15 104.08L232.57 72.65C232.57 63.62 225.04 56.3 215.77 56.3L183.5 56.3Z" />
	</g>
</svg>