<svg xmlns="http://www.w3.org/2000/svg" width="244" height="242" baseProfile="tiny-ps" version="1.2" viewBox="0 0 244 242"><title>Ranking</title><style>.shp0{fill:#fff}</style><g id="Ranking"><path id="Path" d="M31.39 67.25L31.39 67.25C48.35 67.25 62.1 81 62.1 97.96L62.1 210.59C62.1 227.55 48.35 241.3 31.39 241.3L31.39 241.3C14.43 241.3 0.67 227.55 0.67 210.59L0.67 97.96C0.67 81 14.43 67.25 31.39 67.25Z" class="shp0"/><path id="Path" d="M122 0.7L122 0.7C138.96 0.7 152.72 14.45 152.72 31.41L152.72 210.59C152.72 227.55 138.96 241.3 122 241.3L122 241.3C105.04 241.3 91.28 227.55 91.28 210.59L91.28 31.41C91.28 14.45 105.04 0.7 122 0.7Z" class="shp0"/><path id="Path" d="M212.61 104.11L212.61 104.11C229.57 104.11 243.33 117.86 243.33 134.82L243.33 210.59C243.33 227.55 229.57 241.3 212.61 241.3L212.61 241.3C195.65 241.3 181.9 227.55 181.9 210.59L181.9 134.82C181.9 117.86 195.65 104.11 212.61 104.11Z" class="shp0"/></g></svg>