<svg version="1.2" baseProfile="tiny-ps" xmlns="http://www.w3.org/2000/svg" viewBox="0 0 188 242" width="188" height="242">
	<title>Rate</title>
	<style>
		tspan { white-space:pre }
		.shp0 { fill: #ffffff } 
	</style>
	<g id="Rate">
		<path id="Composite Path" fill-rule="evenodd" class="shp0" d="M160.26 147.84C164.96 159.36 172.26 176.38 182.22 198.99C185.45 206.76 187.13 212.41 187.13 215.87C187.13 224.14 180.4 231.06 167.06 236.71C160.12 239.75 154.58 241.3 150.37 241.3C146.16 241.3 142.72 240.24 140.06 238.19C137.32 236.15 135.36 234.03 134.09 231.84C131.92 227.74 123.5 208.1 108.84 172.92L98.88 173.56L58.12 173.56L58.12 210.36C58.12 215.38 57.91 219.12 57.62 221.59C57.27 224.14 56.22 226.96 54.54 230.21C51.52 236.08 43.1 238.97 29.35 238.97C14.2 238.97 5.36 235.02 2.84 226.96C1.5 223.29 0.87 217.64 0.87 210.01L0.87 29.38C0.87 24.43 1.01 20.69 1.36 18.15C1.64 15.67 2.7 12.78 4.45 9.53C7.47 3.66 15.88 0.7 29.63 0.7L99.51 0.7C118.45 0.7 136.83 7.69 154.79 21.54C163.35 28.32 170.5 37.43 176.12 48.95C181.73 60.46 184.53 73.25 184.53 87.3C184.53 111.89 176.4 132.02 160.26 147.84ZM58.12 58.34L58.12 115.98L99.51 115.98C105.68 115.98 111.92 113.65 118.24 108.85C124.48 104.05 127.64 96.91 127.64 87.3C127.64 77.77 124.48 70.56 118.24 65.69C111.92 60.81 105.47 58.34 98.88 58.34L58.12 58.34Z" />
	</g>
</svg>