<svg xmlns="http://www.w3.org/2000/svg" width="218" height="242" baseProfile="tiny-ps" version="1.2" viewBox="0 0 218 242"><title>Repeat</title><style>.shp0{fill:#fff}</style><g id="Repeat"><path id="Path" d="M156.06 23.81C156.06 23.81 177.09 -4.62 192.19 1.58C207.29 7.78 223.82 89.72 213.87 101.61C203.93 113.5 121.21 116.66 112.7 105.31C104.18 93.96 156.06 23.81 156.06 23.81Z" class="shp0"/><path id="Path" d="M110.25 17.58C159.5 17.58 201.15 50.83 214.89 96.56L152.71 80.38C141.73 69.48 126.76 60.56 110.25 60.56C76.6 60.56 41.51 85.27 41.51 129.72C41.51 171.77 74.2 196.89 107.83 198.05C146.08 199.36 167.71 171.07 173.91 143.4C173.91 143.4 182.7 135.58 198.65 138.86C214.6 142.14 217.2 153.31 217.2 153.31C206.5 203.62 162.68 241.3 110.25 241.3C49.8 241.3 0.8 191.22 0.8 129.44C0.8 67.66 49.8 17.58 110.25 17.58Z" class="shp0"/></g></svg>