<svg version="1.2" baseProfile="tiny-ps" xmlns="http://www.w3.org/2000/svg" viewBox="0 0 236 250" width="236" height="250">
	<title>Settings</title>
	<style>
		tspan { white-space:pre }
		.shp0 { fill: #ffffff } 
	</style>
	<g id="Settings">
		<path id="Settings" fill-rule="evenodd" class="shp0" d="M143.37 38.36C157.23 42.42 169.91 49.74 180.35 59.71C189.44 53.72 198.98 48.57 208.96 44.27C210.79 43.48 212.93 43.99 214.2 45.52C223.07 56.25 230.07 68.39 234.93 81.42C235.62 83.3 235 85.4 233.4 86.6C224.68 93.09 215.45 98.77 205.72 103.65C209.13 117.68 209.13 132.32 205.72 146.35C215.45 151.23 224.68 156.91 233.4 163.41C234.99 164.6 235.62 166.7 234.93 168.58C230.07 181.61 223.07 193.75 214.21 204.48C212.93 206.01 210.79 206.52 208.96 205.74C198.98 201.43 189.44 196.28 180.35 190.29C169.91 200.26 157.23 207.58 143.37 211.64C144.01 222.51 143.7 233.34 142.44 244.14C142.2 246.12 140.69 247.71 138.73 248.05C125.01 250.36 110.99 250.36 97.27 248.06C95.31 247.71 93.8 246.12 93.56 244.14C92.3 233.34 91.99 222.51 92.63 211.64C78.77 207.58 66.09 200.26 55.65 190.29C46.56 196.28 37.02 201.43 27.04 205.73C25.21 206.52 23.07 206.01 21.8 204.48C12.93 193.75 5.93 181.61 1.07 168.58C0.38 166.7 1 164.6 2.6 163.4C11.32 156.91 20.55 151.23 30.28 146.35C26.87 132.32 26.87 117.68 30.28 103.65C20.55 98.77 11.32 93.09 2.6 86.59C1.01 85.4 0.38 83.3 1.07 81.42C5.93 68.39 12.93 56.25 21.79 45.52C23.07 43.99 25.21 43.48 27.04 44.26C37.02 48.57 46.56 53.72 55.65 59.71C66.09 49.74 78.77 42.42 92.63 38.36C91.99 27.49 92.3 16.66 93.56 5.86C93.8 3.88 95.31 2.29 97.27 1.95C110.99 -0.36 125.01 -0.36 138.73 1.94C140.69 2.29 142.2 3.88 142.44 5.86C143.7 16.66 144.01 27.49 143.37 38.36ZM79.29 129.19C81.46 149.19 100.56 163.54 121.92 161.23C143.29 158.91 158.87 140.8 156.71 120.81C154.54 100.81 135.44 86.46 114.08 88.77C92.71 91.09 77.13 109.2 79.29 129.19Z" />
	</g>
</svg>