<svg xmlns="http://www.w3.org/2000/svg" width="210" height="226" baseProfile="tiny-ps" version="1.2" viewBox="0 0 210 226"><title>Share</title><style>.shp0{fill:#fff}</style><g id="Share"><g id="Layer 11"><g id="Layer 6"><path id="Layer 4" d="M203.74 20.12C214.79 39.26 208.22 63.77 189.08 74.82C169.94 85.86 145.44 79.3 134.39 60.16C123.34 41.02 129.9 16.51 149.04 5.46C168.18 -5.59 192.69 0.98 203.74 20.12Z" class="shp0"/><path id="Layer 5" d="M177.95 44.54L67.54 108.29L59.28 93.99L169.7 30.24L177.95 44.54Z" class="shp0"/></g><g id="Layer 10"><path id="Layer 8" d="M149.04 220.54C129.9 209.49 123.34 184.98 134.39 165.84C145.44 146.7 169.94 140.14 189.08 151.18C208.22 162.23 214.79 186.74 203.74 205.88C192.69 225.02 168.18 231.59 149.04 220.54Z" class="shp0"/><path id="Layer 9" d="M169.7 195.76L59.28 132.01L67.54 117.71L177.95 181.46L169.7 195.76Z" class="shp0"/></g></g><path id="Layer 12" d="M40.94 72.96C63.04 72.96 80.98 90.9 80.98 113C80.98 135.1 63.04 153.04 40.94 153.04C18.84 153.04 0.9 135.1 0.9 113C0.9 90.9 18.84 72.96 40.94 72.96Z" class="shp0"/></g></svg>