<svg xmlns="http://www.w3.org/2000/svg" width="228" height="242" baseProfile="tiny-ps" version="1.2" viewBox="0 0 228 242"><title>Sharing</title><style>.shp0{fill:#fff}</style><g id="Sharing"><path id="Layer 2" d="M196.14 73.85C203.36 70.18 212.19 73.06 215.86 80.28C223.47 95.25 227.75 112.12 227.75 129.95C227.75 191.43 176.87 241.51 114 241.51C51.13 241.51 0.25 191.43 0.25 129.95C0.25 112.12 4.53 95.25 12.14 80.28C15.81 73.06 24.64 70.18 31.86 73.85C39.08 77.52 41.96 86.35 38.29 93.57C32.72 104.53 29.59 116.89 29.59 129.95C29.59 175.43 67.5 212.18 114 212.18C160.5 212.18 198.41 175.43 198.41 129.95C198.41 116.89 195.28 104.53 189.71 93.57C186.04 86.35 188.92 77.52 196.14 73.85Z" class="shp0"/><path id="Layer 3" d="M114.19 0.49C138.66 0.3 173.37 66.78 163.18 73.46C154.04 79.45 139.63 79.47 139.63 79.47C139.63 79.47 150.74 123.32 145.37 132.79C140.81 140.84 91.32 143.99 83.55 132.56C76.62 122.36 88.88 78.87 88.88 78.87C88.88 78.87 71.9 79.26 64.29 72.98C55.35 65.6 89.95 0.67 114.19 0.49Z" class="shp0"/></g></svg>