<svg version="1.2" baseProfile="tiny-ps" xmlns="http://www.w3.org/2000/svg" viewBox="0 0 234 244" width="234" height="244">
	<title>Shop</title>
	<style>
		tspan { white-space:pre }
		.shp0 { fill: #ffffff } 
	</style>
	<g id="Shop">
		<path id="Ellipse" class="shp0" d="M57.15 211.26C57.15 193.48 71.56 179.06 89.35 179.06C107.13 179.06 121.55 193.48 121.55 211.26C121.55 229.04 107.13 243.46 89.35 243.46C71.56 243.46 57.15 229.04 57.15 211.26Z" />
		<path id="Ellipse" class="shp0" d="M167.86 209.73C167.86 191.95 182.28 177.53 200.06 177.53C217.84 177.53 232.26 191.95 232.26 209.73C232.26 227.51 217.84 241.93 200.06 241.93C182.28 241.93 167.86 227.51 167.86 209.73Z" />
		<path id="Layer 4" class="shp0" d="M26.66 36.28L7.04 25.58C0.58 22.06 -1.81 13.95 1.72 7.49C5.24 1.03 13.35 -1.36 19.81 2.17L44.58 15.68C47.87 17.47 50.25 20.56 51.15 24.19L79.7 140.13L219.54 140.13C226.9 140.13 232.87 146.11 232.87 153.47C232.87 160.83 226.9 166.8 219.54 166.8L69.25 166.8C63.12 166.8 57.77 162.61 56.31 156.66L26.66 36.28Z" />
		<path id="Layer 5" class="shp0" d="M207.98 114.93C206.33 119.83 201.74 123.12 196.58 123.12L109.03 123.12C103.49 123.12 98.67 119.34 97.34 113.96L78.89 39.06C78.01 35.47 78.83 31.67 81.11 28.76C83.39 25.85 86.88 24.14 90.58 24.14L221.88 24.14C225.75 24.14 229.39 26.01 231.65 29.16C233.91 32.31 234.52 36.36 233.28 40.03L207.98 114.93Z" />
	</g>
</svg>