<svg version="1.2" baseProfile="tiny-ps" xmlns="http://www.w3.org/2000/svg" viewBox="0 0 240 202" width="240" height="202">
	<title>Sound On</title>
	<style>
		tspan { white-space:pre }
		.shp0 { fill: #ffffff } 
	</style>
	<g id="Sound On">
		<g id="Layer 6">
			<path id="Path" class="shp0" d="M24.69 58.74L77.29 58.74C90.85 58.74 101.83 69.71 101.83 83.25L101.83 118.75C101.83 132.29 90.85 143.26 77.29 143.26L24.69 143.26C11.14 143.26 0.15 132.29 0.15 118.75L0.15 83.25C0.15 69.71 11.14 58.74 24.69 58.74Z" />
			<path id="Layer 4" class="shp0" d="M151.6 182.55C151.6 193.27 142.89 201.98 132.17 201.98C121.44 201.98 112.73 193.27 112.73 182.55L112.73 19.45C112.73 8.73 121.44 0.02 132.17 0.02C142.89 0.02 151.6 8.73 151.6 19.45L151.6 182.55Z" />
			<path id="Path" class="shp0" d="M62.57 59.64L118.23 5.91L118.23 196.09L62.72 142.42L62.57 59.64Z" />
		</g>
		<path id="Volume Medium Icon" fill-rule="evenodd" class="shp0" d="M210.71 174.07C209.01 175.8 206.69 176.78 204.27 176.79C201.85 176.8 199.52 175.84 197.81 174.13C197.75 174.18 197.75 174.18 197.75 174.18C194.37 170.8 194.35 165.33 197.71 161.93C212.83 146.09 222.1 124.68 222.1 101.05C222.1 77.46 212.85 56.07 197.82 40.19C194.47 36.79 194.49 31.32 197.87 27.94C197.81 27.88 197.81 27.88 197.81 27.88C199.52 26.16 201.85 25.2 204.27 25.21C206.69 25.22 209.01 26.2 210.71 27.93C228.72 47.05 239.85 72.72 239.85 101.05C239.85 129.36 228.74 155.01 210.71 174.07ZM185.9 148.77C184.18 150.56 181.81 151.59 179.32 151.62C176.84 151.65 174.44 150.68 172.69 148.92C172.59 149.01 172.58 149.01 172.58 149.01C169.25 145.67 169.2 140.28 172.49 136.89C181.29 127.53 186.62 114.93 186.62 101.05C186.62 87.17 181.28 74.55 172.57 65.09C169.36 61.78 169.4 56.5 172.66 53.24C172.55 53.13 172.55 53.13 172.55 53.13C174.35 51.33 176.79 50.34 179.33 50.37C181.87 50.4 184.29 51.45 186.04 53.29C197.38 65.98 204.36 82.7 204.36 101.05C204.36 119.43 197.36 136.17 185.9 148.77Z" />
	</g>
</svg>