<svg version="1.2" baseProfile="tiny-ps" xmlns="http://www.w3.org/2000/svg" viewBox="0 0 152 202" width="152" height="202">
	<title>Sound</title>
	<style>
		tspan { white-space:pre }
		.shp0 { fill: #ffffff } 
	</style>
	<g id="Sound">
		<path id="Path" class="shp0" d="M24.81 58.74L77.41 58.74C90.97 58.74 101.95 69.71 101.95 83.25L101.95 118.75C101.95 132.29 90.97 143.26 77.41 143.26L24.81 143.26C11.26 143.26 0.28 132.29 0.28 118.75L0.28 83.25C0.28 69.71 11.26 58.74 24.81 58.74Z" />
		<path id="Layer 3" class="shp0" d="M151.72 182.55C151.72 193.27 143.02 201.98 132.29 201.98C121.56 201.98 112.85 193.27 112.85 182.55L112.85 19.45C112.85 8.73 121.56 0.02 132.29 0.02C143.02 0.02 151.72 8.73 151.72 19.45L151.72 182.55Z" />
		<path id="Path" class="shp0" d="M62.69 59.64L118.35 5.91L118.35 196.09L62.84 142.42L62.69 59.64Z" />
	</g>
</svg>