<svg xmlns="http://www.w3.org/2000/svg" width="242" height="202" baseProfile="tiny-ps" version="1.2" viewBox="0 0 242 202"><title>Sound Off</title><style>.shp0{fill:#fff}</style><g id="Sound Off"><g id="Layer 6"><path id="Path" d="M24.69 58.74L77.3 58.74C90.85 58.74 101.83 69.71 101.83 83.25L101.83 118.75C101.83 132.29 90.85 143.26 77.3 143.26L24.69 143.26C11.14 143.26 0.16 132.29 0.16 118.75L0.16 83.25C0.16 69.71 11.14 58.74 24.69 58.74Z" class="shp0"/><path id="Layer 4" d="M151.61 182.55C151.61 193.27 142.9 201.98 132.17 201.98C121.44 201.98 112.73 193.27 112.73 182.55L112.73 19.45C112.73 8.73 121.44 0.02 132.17 0.02C142.9 0.02 151.61 8.73 151.61 19.45L151.61 182.55Z" class="shp0"/><path id="Path" d="M62.58 59.64L118.23 5.91L118.23 196.09L62.73 142.42L62.58 59.64Z" class="shp0"/></g><g id="Layer 10"><path id="Path" d="M239.81 67.76L239.81 67.76C242.53 70.4 242.52 74.77 239.79 77.5L183.09 134.14C180.42 136.8 176.14 136.79 173.52 134.12L173.52 134.12C170.91 131.45 170.94 127.14 173.59 124.48L229.97 67.92C232.69 65.19 237.09 65.12 239.81 67.76Z" class="shp0"/><path id="Path" d="M183.65 67.92L239.73 124.48C242.37 127.14 242.37 131.45 239.73 134.12L239.73 134.12C237.09 136.79 232.8 136.8 230.15 134.14L173.74 77.5C171.02 74.77 171.04 70.4 173.79 67.76L173.79 67.76C176.53 65.12 180.94 65.19 183.65 67.92Z" class="shp0"/></g></g></svg>