<svg version="1.2" baseProfile="tiny-ps" xmlns="http://www.w3.org/2000/svg" viewBox="0 0 246 236" width="246" height="236">
	<title>Star</title>
	<style>
		tspan { white-space:pre }
		.shp0 { fill: #ffffff } 
	</style>
	<path id="Star" class="shp0" d="M123 -0.09C152.86 -0.09 171.78 60.78 171.78 60.78C171.78 60.78 235.51 59.96 244.74 88.36C253.96 116.76 201.92 153.56 201.92 153.56C201.92 153.56 222.39 213.92 198.24 231.47C174.08 249.02 123 210.9 123 210.9C123 210.9 71.92 249.02 47.76 231.47C23.61 213.92 44.08 153.56 44.08 153.56C44.08 153.56 -7.96 116.76 1.26 88.36C10.49 59.96 74.22 60.78 74.22 60.78C74.22 60.78 93.14 -0.09 123 -0.09Z" />
</svg>