<svg version="1.2" baseProfile="tiny-ps" xmlns="http://www.w3.org/2000/svg" viewBox="0 0 244 250" width="244" height="250">
	<title>Sticker Star - Border</title>
	<style>
		tspan { white-space:pre }
		.shp0 { fill: #ffffff;stroke: #ffffff;stroke-linecap:round;stroke-linejoin:round;stroke-width: 12.548 } 
	</style>
	<path id="Sticker Star - Border" class="shp0" d="M122 6.83L145.64 21.42L173.27 18.53L188.24 41.94L214.39 51.32L217.72 78.9L237.21 98.7L228.24 125L237.21 151.3L217.72 171.1L214.39 198.68L188.24 208.06L173.27 231.47L145.64 228.58L122 243.17L98.36 228.58L70.73 231.47L55.76 208.06L29.61 198.68L26.28 171.1L6.79 151.3L15.76 125L6.79 98.7L26.28 78.9L29.61 51.32L55.76 41.94L70.73 18.53L98.36 21.42L122 6.83Z" />
</svg>