<svg xmlns="http://www.w3.org/2000/svg" width="246" height="202" baseProfile="tiny-ps" version="1.2" viewBox="0 0 246 202"><title>Twitter</title><style>.shp0{fill:#fff}</style><g id="Twitter"><path id="Layer 2" d="M220.36 50.32C220.45 52.53 220.48 54.75 220.48 56.97C220.48 124.25 169.96 201.91 77.59 201.91C49.21 201.91 22.83 193.44 0.6 179.02C4.53 179.42 8.52 179.72 12.57 179.72C36.1 179.72 57.77 171.55 74.95 157.84C52.98 157.53 34.42 142.71 28.02 122.53C31.09 123.14 34.26 123.44 37.49 123.44C42.06 123.44 46.49 122.84 50.73 121.63C27.74 116.99 10.41 96.41 10.41 71.7L10.41 71.09C17.19 74.83 24.95 77.15 33.19 77.45C19.69 68.27 10.82 52.64 10.82 34.98C10.82 25.71 13.29 16.93 17.64 9.37C42.4 40.23 79.43 60.5 121.16 62.62C120.31 58.89 119.87 54.96 119.87 51.02C119.87 22.88 142.35 0.09 170.1 0.09C184.54 0.09 197.58 6.24 206.74 16.12C218.2 13.9 228.94 9.67 238.66 3.82C234.89 15.72 226.94 25.71 216.55 31.96C226.72 30.75 236.41 28.03 245.4 23.99C238.66 34.18 230.17 43.15 220.36 50.32Z" class="shp0"/></g></svg>