<svg xmlns="http://www.w3.org/2000/svg" width="218" height="224" baseProfile="tiny-ps" version="1.2" viewBox="0 0 218 224"><title>User - Plus</title><style>.shp0{fill:#fff}</style><g id="User - Plus"><path id="Layer 2" d="M168.91 209.65C161.57 218.1 150.81 223.16 139.28 223.16C108.79 223.16 70.59 223.16 40.11 223.13C25.01 223.13 11.25 214.47 4.72 200.85C-1.8 187.23 0.07 171.08 9.53 159.31C17.21 149.69 26.59 141.47 37.2 135.13C52.28 147.15 71.39 154.34 92.16 154.34C93.67 154.34 95.18 154.3 96.67 154.22C104.3 186.02 132.93 209.67 167.05 209.67C167.67 209.67 168.29 209.66 168.91 209.65Z" class="shp0"/><path id="Layer 3" d="M94.93 131.21C94.01 131.25 93.09 131.27 92.16 131.27C56.17 131.27 26.95 102.05 26.95 66.06C26.95 30.06 56.17 0.84 92.16 0.84C127.99 0.84 157.11 29.81 157.37 65.58C123.98 70.05 97.77 97.33 94.93 131.21Z" class="shp0"/><path id="Layer 4" fill-rule="evenodd" d="M167.05 87.22C194.69 87.22 217.13 109.66 217.13 137.3C217.13 164.94 194.69 187.38 167.05 187.38C139.41 187.38 116.97 164.94 116.97 137.3C116.97 109.66 139.41 87.22 167.05 87.22ZM174.41 129.94L174.41 117.44C174.41 113.38 171.11 110.08 167.05 110.08C162.99 110.08 159.69 113.38 159.69 117.44L159.69 129.94L147.18 129.94C143.12 129.94 139.82 133.24 139.82 137.3C139.82 141.37 143.12 144.66 147.18 144.66L159.69 144.66L159.69 157.17C159.69 161.23 162.99 164.53 167.05 164.53C171.11 164.53 174.41 161.23 174.41 157.17L174.41 144.66L186.91 144.66C190.97 144.66 194.27 141.37 194.27 137.3C194.27 133.24 190.97 129.94 186.91 129.94L174.41 129.94Z" class="shp0"/></g></svg>