<svg xmlns="http://www.w3.org/2000/svg" width="252" height="252" baseProfile="tiny-ps" version="1.2" viewBox="0 0 252 252"><title>Users</title><style>.shp0{fill:#fff}</style><g id="Users"><path id="Layer 2" d="M36.7 163.6C51.78 175.62 70.89 182.81 91.66 182.81C111.44 182.81 129.7 176.29 144.43 165.29C153.93 171.37 162.35 178.98 169.37 187.76C178.84 199.54 180.71 215.7 174.19 229.33C167.66 242.95 153.89 251.63 138.78 251.63C108.29 251.63 70.1 251.63 39.61 251.6C24.51 251.6 10.75 242.94 4.22 229.32C-2.3 215.7 -0.43 199.55 9.04 187.78C16.71 178.16 26.09 169.94 36.7 163.6Z" class="shp0"/><path id="Layer 3" d="M91.66 29.31C127.65 29.31 156.87 58.54 156.87 94.53C156.87 130.52 127.65 159.74 91.66 159.74C55.67 159.74 26.45 130.52 26.45 94.53C26.45 58.54 55.67 29.31 91.66 29.31Z" class="shp0"/><path id="Layer 4" fill-rule="evenodd" d="M171.54 153.65C188.89 152.42 204.87 146.17 218.02 136.35C227.51 142.43 235.94 150.04 242.96 158.82C252.43 170.6 254.3 186.76 247.77 200.39C241.25 214.01 227.48 222.69 212.37 222.69L210.81 222.69C213.18 207.83 209.28 192.38 199.56 180.29C191.48 170.19 182.05 161.21 171.54 153.65ZM181.42 94.53C181.42 107.2 178.79 119.27 174.04 130.21C205.88 125.91 230.46 98.59 230.46 65.59C230.46 29.59 201.24 0.37 165.25 0.37C151.26 0.37 138.3 4.78 127.68 12.29C159.31 26.18 181.42 57.79 181.42 94.53Z" class="shp0"/></g></svg>