<svg xmlns="http://www.w3.org/2000/svg" width="178" height="224" baseProfile="tiny-ps" version="1.2" viewBox="0 0 178 224"><title>User</title><style>.shp0{fill:#fff}</style><g id="User"><path id="Layer 2" d="M36.49 135.13C51.58 147.15 70.68 154.34 91.45 154.34C111.23 154.34 129.5 147.82 144.22 136.82C153.72 142.9 162.15 150.51 169.17 159.29C178.64 171.07 180.51 187.23 173.98 200.86C167.45 214.48 153.68 223.16 138.57 223.16C108.09 223.16 69.89 223.16 39.4 223.13C24.3 223.13 10.54 214.47 4.02 200.85C-2.51 187.23 -0.63 171.08 8.83 159.31C16.51 149.69 25.88 141.47 36.49 135.13Z" class="shp0"/><path id="Layer 3" d="M91.45 0.84C127.44 0.84 156.66 30.06 156.66 66.06C156.66 102.05 127.44 131.27 91.45 131.27C55.46 131.27 26.24 102.05 26.24 66.06C26.24 30.06 55.46 0.84 91.45 0.84Z" class="shp0"/></g></svg>