<svg version="1.2" baseProfile="tiny-ps" xmlns="http://www.w3.org/2000/svg" viewBox="0 0 226 220" width="226" height="220">
	<title>X Icon</title>
	<style>
		tspan { white-space:pre }
		.shp0 { fill: #ffffff } 
	</style>
	<g id="X Icon">
		<path id="Layer 2" class="shp0" d="M66.93 213.62C63.08 217.45 57.86 219.58 52.43 219.51C47 219.45 41.82 217.2 38.07 213.28C28.37 203.14 15.6 189.79 6.03 179.78C-1.56 171.85 -1.42 159.3 6.34 151.54C39.06 118.82 120.25 37.63 151.51 6.37C158.69 -0.81 170.08 -1.55 178.12 4.65C188.85 12.91 203.73 24.37 215.38 33.34C219.99 36.89 222.85 42.25 223.22 48.05C223.59 53.86 221.44 59.54 217.32 63.65C182.3 98.57 100.37 180.27 66.93 213.62Z" />
		<path id="Layer 3" class="shp0" d="M8.68 63.65C4.56 59.54 2.41 53.86 2.78 48.05C3.15 42.25 6.01 36.89 10.62 33.34C22.27 24.37 37.15 12.91 47.88 4.65C55.92 -1.55 67.31 -0.81 74.49 6.37C105.75 37.63 186.94 118.82 219.66 151.54C227.42 159.3 227.56 171.85 219.97 179.78C210.4 189.79 197.63 203.14 187.93 213.28C184.18 217.2 179 219.45 173.57 219.51C168.14 219.58 162.92 217.45 159.07 213.62C125.63 180.27 43.7 98.57 8.68 63.65Z" />
	</g>
</svg>