<svg version="1.2" baseProfile="tiny-ps" xmlns="http://www.w3.org/2000/svg" viewBox="0 0 244 172" width="244" height="172">
	<title>Youtube</title>
	<style>
		tspan { white-space:pre }
		.shp0 { fill: #ffffff } 
	</style>
	<g id="Youtube">
		<g id="Youtube - White">
			<path id="Layer 3" fill-rule="evenodd" class="shp0" d="M101.15 171.09C54.89 170.23 39.09 169.47 29.38 167.47C22.81 166.14 17.1 163.19 12.91 158.9C9.68 155.66 7.1 150.72 5.11 143.86C3.39 138.15 2.73 133.39 1.78 121.78C0.32 95.57 -0.03 74.14 1.78 50.2C3.26 36.98 3.98 21.28 13.86 12.12C18.53 7.84 23.95 5.08 30.04 3.94C39.56 2.13 80.11 0.7 122.09 0.7C163.97 0.7 204.61 2.13 214.14 3.94C221.75 5.37 228.89 9.65 233.08 15.17C242.09 29.35 242.25 46.98 243.17 60.77C243.54 67.34 243.54 104.65 243.17 111.22C241.74 133.01 240.6 140.72 237.36 148.72C235.36 153.76 233.65 156.43 230.7 159.38C226.06 163.92 220.15 166.94 213.75 168.04C173.72 171.05 139.73 171.7 101.15 171.09ZM162.54 83.42C162.5 83.44 162.46 83.47 162.41 83.49C162.42 83.5 162.44 83.51 162.45 83.51L162.54 83.42ZM97.06 49.15L97.06 117.5C119.94 105.06 144.06 93.66 162.41 83.49C140.15 71.6 118.84 60.57 97.06 49.15Z" />
		</g>
	</g>
</svg>